<?xml version="1.0" encoding="UTF-8"?>
<svg version="1.1" xmlns="http://www.w3.org/2000/svg" fill="#d6d6d6" width="512" height="512">
<path d="M0 0 C13.76354984 11.58955198 13.76354984 11.58955198 14.25299966 16.57915896 C14.25511294 18.14559593 14.25511294 18.14559593 14.25726891 19.74367809 C14.2637178 20.94852232 14.27016669 22.15336655 14.276811 23.39472121 C14.27386842 24.73866771 14.27073296 26.0826138 14.26742554 27.42655945 C14.27116014 28.84905372 14.2757609 30.27154593 14.28115618 31.69403487 C14.29342677 35.61273652 14.29312092 39.53135306 14.29076743 43.45006955 C14.29036025 47.67327965 14.30138952 51.89646211 14.31088257 56.11965942 C14.32751952 64.40044944 14.33299347 72.68121098 14.33410732 80.96201631 C14.33505723 87.69760558 14.33916468 94.43318545 14.34550858 101.16877174 C14.3631341 120.27212382 14.37234626 139.3754534 14.37084763 158.47881367 C14.37076772 159.50940135 14.3706878 160.53998903 14.37060547 161.60180664 C14.37052371 162.63365649 14.37044195 163.66550635 14.37035771 164.72862438 C14.36954609 181.42393459 14.38864892 198.1191543 14.4168822 214.81443837 C14.44565356 231.96368523 14.45941992 249.11288805 14.45769465 266.26215965 C14.45703186 275.88715513 14.46247459 285.51205594 14.48405075 295.13702965 C14.50231929 303.33920677 14.50656409 311.54124639 14.4930319 319.74343511 C14.48652864 323.92365941 14.48628821 328.1036204 14.5037384 332.2838192 C14.51959414 336.12185706 14.51647996 339.95942562 14.49917014 343.7974529 C14.49470189 345.8205211 14.50965954 347.84360459 14.52564943 349.86661452 C14.43485173 362.09538057 12.09477683 374.50769275 6.25 385.375 C5.90565918 386.03580566 5.56131836 386.69661133 5.20654297 387.37744141 C2.10468519 393.14810996 -1.56058558 398.17490632 -6 403 C-6.74894531 403.84046875 -7.49789063 404.6809375 -8.26953125 405.546875 C-21.33637838 419.47921605 -41.03793026 429.3839827 -60.33746016 430.12880117 C-61.56330742 430.13058974 -62.78915468 430.13237831 -64.05214882 430.13422108 C-65.08642285 430.13774942 -65.08642285 430.13774942 -66.14159131 430.14134905 C-68.45106913 430.14800378 -70.76049023 430.1475819 -73.06997681 430.14717102 C-74.74284938 430.15047179 -76.41572116 430.1541978 -78.08859193 430.1583125 C-82.68495199 430.16831537 -87.28129899 430.17204649 -91.87766838 430.17470181 C-96.83474658 430.17860962 -101.79181449 430.18818723 -106.74888611 430.19691467 C-118.715356 430.21665946 -130.68182671 430.22674007 -142.64830881 430.23564246 C-148.28128048 430.24002621 -153.91425121 430.24539257 -159.54722214 430.25063133 C-178.26543546 430.2676371 -196.9836482 430.28213403 -215.70186806 430.28938007 C-220.55710475 430.29128999 -225.41234145 430.29321033 -230.26757812 430.29516602 C-231.47433486 430.29564976 -232.68109159 430.2961335 -233.92441671 430.2966319 C-253.49877102 430.30494274 -273.07306443 430.33030033 -292.64739211 430.36274669 C-312.73470304 430.39577277 -332.82198295 430.41382456 -352.90932119 430.41702431 C-364.19162678 430.4191929 -375.47384341 430.42799305 -386.75612259 430.45348549 C-396.35805775 430.47513122 -405.95988232 430.48327301 -415.56183912 430.47351871 C-420.46360782 430.46895696 -425.36514802 430.47096869 -430.26688576 430.49028015 C-434.74994478 430.50779043 -439.23260655 430.50701383 -443.71566908 430.49138286 C-445.34139611 430.48898828 -446.96714979 430.49342516 -448.59283586 430.50521151 C-450.79555814 430.52019825 -452.99684847 430.51075217 -455.19953346 430.49498463 C-456.42505602 430.49596144 -457.65057857 430.49693824 -458.91323817 430.49794465 C-462 430 -462 430 -464.39356887 428.37199181 C-466.50098908 425.2602596 -466.50126009 423.30166125 -466.50336456 419.55314636 C-466.50917833 418.90477062 -466.51499209 418.25639488 -466.52098203 417.5883714 C-466.53562986 415.40643999 -466.52167592 413.22562516 -466.50793457 411.04370117 C-466.51254163 409.46742011 -466.51889324 407.89114334 -466.52684355 406.3148756 C-466.5435869 401.97611791 -466.53526792 397.63771081 -466.52289867 393.29895163 C-466.5138709 388.62266726 -466.52780659 383.94644438 -466.53881836 379.27017212 C-466.55663252 370.10650238 -466.55275072 360.94296346 -466.5411678 351.77928853 C-466.53214512 344.33375424 -466.53090441 336.88825669 -466.53526306 329.44271851 C-466.53587599 328.38422736 -466.53648893 327.32573622 -466.53712043 326.23516959 C-466.53839929 324.08506464 -466.53969615 321.9349597 -466.5410108 319.78485477 C-466.55242508 299.60925229 -466.53928959 279.43372243 -466.51780933 259.25813186 C-466.49993759 241.93539788 -466.50304146 224.61277111 -466.52148438 207.29003906 C-466.54287611 187.18809524 -466.55132637 167.08621512 -466.53903532 146.98426151 C-466.53776108 144.84193485 -466.5365036 142.69960818 -466.53526306 140.55728149 C-466.53464596 139.50313417 -466.53402886 138.44898685 -466.53339306 137.36289567 C-466.52993506 129.92374883 -466.53577817 122.4846423 -466.54518127 115.04550171 C-466.5563838 105.98331377 -466.55339807 96.92126447 -466.5320583 87.85909247 C-466.5215243 83.23278276 -466.51746589 78.60670443 -466.53065491 73.98039627 C-466.54253623 69.74888367 -466.5360872 65.51781789 -466.5147447 61.28634608 C-466.51026046 59.75208881 -466.51258554 58.21779413 -466.52224785 56.68356073 C-466.53434361 54.60411527 -466.5220095 52.52621714 -466.50336456 50.44685364 C-466.50271515 49.29011548 -466.50206574 48.13337732 -466.50139666 46.94158649 C-465.88898686 43.34870976 -464.85485811 42.19747416 -462 40 C-459.0337715 39.01125717 -457.11693161 38.87563983 -454.02373219 38.87695217 C-452.99015734 38.87496112 -451.9565825 38.87297007 -450.89168721 38.87091869 C-449.75259599 38.87383153 -448.61350477 38.87674437 -447.43989563 38.87974548 C-446.23268441 38.87889106 -445.02547319 38.87803663 -443.78167981 38.87715632 C-440.42497195 38.87579105 -437.06832203 38.8789275 -433.71162117 38.88393438 C-430.09405318 38.88824407 -426.47648706 38.88679208 -422.85891724 38.8860321 C-416.58927802 38.8855072 -410.31964919 38.88865051 -404.05001259 38.89426994 C-394.98511847 38.90238946 -385.9202294 38.90500063 -376.85533204 38.90625793 C-362.14891317 38.90844774 -347.44249984 38.9151059 -332.73608398 38.92456055 C-318.44832385 38.9337365 -304.16056522 38.94081644 -289.87280273 38.94506836 C-288.99242721 38.94533108 -288.11205168 38.94559381 -287.20499811 38.94586449 C-282.78850901 38.94716951 -278.37201989 38.94843322 -273.95553076 38.94967639 C-237.30368326 38.96004679 -200.65184206 38.97766317 -164 39 C-164.01571045 38.3294458 -164.0314209 37.6588916 -164.04760742 36.96801758 C-164.11014658 33.9162649 -164.14905063 30.86464732 -164.1875 27.8125 C-164.22520508 26.22985352 -164.22520508 26.22985352 -164.26367188 24.61523438 C-164.27333984 23.59365234 -164.28300781 22.57207031 -164.29296875 21.51953125 C-164.3086792 20.58214111 -164.32438965 19.64475098 -164.34057617 18.67895508 C-163.25197803 10.1160967 -154.21581322 3.44387914 -147.7578125 -1.58984375 C-103.73086235 -34.59582147 -43.29964104 -34.64943217 0 0 Z M-450 56 C-450 173.81 -450 291.62 -450 413 C-380.6210992 413.08740315 -380.6210992 413.08740315 -311.2421875 413.14648438 C-301.88769515 413.15235791 -292.53320296 413.15841933 -283.17871094 413.16479492 C-282.00629341 413.16558617 -280.83387588 413.16637741 -279.62593055 413.16719264 C-260.70331037 413.18023711 -241.78071757 413.20388668 -222.85811362 413.23145839 C-203.43540424 413.25952255 -184.01270918 413.2761784 -164.58998036 413.28226548 C-152.60714812 413.28637982 -140.62439322 413.2993702 -128.64158478 413.3237494 C-120.42220074 413.33961905 -112.20285662 413.34439756 -103.98345837 413.34050413 C-99.24279493 413.33858451 -94.50226657 413.34150728 -89.7616272 413.35761642 C-85.41613472 413.37227458 -81.07086746 413.37291416 -76.72536436 413.36269668 C-75.15853487 413.3614349 -73.591691 413.36519016 -72.02488956 413.37464955 C-52.05011323 413.48817117 -35.58661823 408.03093754 -21 394 C-4.01982122 376.29981364 -1.81400254 354.52676782 -1.21044922 331.22167969 C-1.15356764 329.49312977 -1.07158847 327.76522049 -0.96435547 326.0390625 C-0.17674899 314.89610445 -0.17674899 314.89610445 -4.70117188 305.06689453 C-7.84641392 301.66842133 -11.29694199 298.76817696 -15 296 C-15.63205353 295.5195372 -16.26410706 295.0390744 -16.91531372 294.54405212 C-37.3682833 279.16162648 -62.21975598 272.71734779 -87.625 275.625 C-112.6013176 279.59036906 -132.76383194 292.01923255 -149.53515625 310.7109375 C-152.02644361 312.90327038 -154.78959517 312.77470843 -158 313 C-160.4375 312.5625 -160.4375 312.5625 -162 312 C-162.82060904 309.12185999 -163.12826564 306.56136164 -163.1386652 303.57223129 C-163.14414057 302.68617455 -163.14961594 301.8001178 -163.15525723 300.88721085 C-163.15623441 299.91862011 -163.15721159 298.95002937 -163.15821838 297.9520874 C-163.16314804 296.92210632 -163.1680777 295.89212524 -163.17315674 294.83093262 C-163.18856977 291.35831879 -163.19690368 287.88572327 -163.20532227 284.41308594 C-163.21503515 281.88949546 -163.22518048 279.36590663 -163.23572445 276.84231949 C-163.26006436 270.75905718 -163.27998171 264.67579455 -163.29780969 258.59251012 C-163.31864781 251.55661078 -163.34578239 244.52074143 -163.3729248 237.48486328 C-163.44147983 218.90659454 -163.50146375 200.32829497 -163.5625 181.75 C-163.706875 140.2525 -163.85125 98.755 -164 56 C-258.38 56 -352.76 56 -450 56 Z M-34 98 C-35.15243755 101.45731264 -35.16824837 104.23259213 -35.1875 107.875 C-35.20167969 109.08929688 -35.21585937 110.30359375 -35.23046875 111.5546875 C-35.00688497 114.89707558 -34.58203973 117.06718215 -33 120 C-29.50875983 122.32749345 -28.10777749 122.50299316 -24 122 C-21.64168066 120.66312546 -21.64168066 120.66312546 -20 118 C-19.4023165 114.65800712 -19.44194437 111.3865787 -19.5 108 C-19.48453125 107.09765625 -19.4690625 106.1953125 -19.453125 105.265625 C-19.46017538 99.98893269 -19.46017538 99.98893269 -21.84375 95.40625 C-26.81308416 92.1653799 -30.56092351 93.54193788 -34 98 Z M-34 143 C-34.952738 145.85821401 -35.13665183 147.68307548 -35.16113281 150.65161133 C-35.17074036 151.59301468 -35.1803479 152.53441803 -35.19024658 153.50434875 C-35.19449646 154.51998398 -35.19874634 155.5356192 -35.203125 156.58203125 C-35.20882507 157.62896652 -35.21452515 158.67590179 -35.22039795 159.75456238 C-35.22984766 161.97121164 -35.23638182 164.18787496 -35.24023438 166.40454102 C-35.24993216 169.7888249 -35.28095313 173.17249949 -35.3125 176.55664062 C-35.31903098 178.7109339 -35.32428108 180.86523151 -35.328125 183.01953125 C-35.3404718 184.02909378 -35.3528186 185.03865631 -35.36553955 186.07881165 C-35.34857365 191.4542413 -35.11154548 195.39186364 -32 200 C-29.15916359 201.42041821 -27.14522722 201.31452272 -24 201 C-21.39884427 198.97234434 -20.15665428 197.76221789 -19.4853363 194.49584961 C-19.47913773 193.55749268 -19.47293915 192.61913574 -19.46655273 191.65234375 C-19.4507164 190.58443604 -19.43488007 189.51652832 -19.41856384 188.41625977 C-19.42352371 187.26826904 -19.42848358 186.12027832 -19.43359375 184.9375 C-19.42739517 183.75406006 -19.42119659 182.57062012 -19.41481018 181.35131836 C-19.40770776 178.84978051 -19.41089327 176.34819543 -19.42358398 173.84667969 C-19.43744902 170.01409165 -19.403381 166.18394424 -19.36523438 162.3515625 C-19.36428321 159.9218744 -19.36614184 157.49218324 -19.37109375 155.0625 C-19.35783554 153.91450928 -19.34457733 152.76651855 -19.33091736 151.58374023 C-19.27429634 145.40104343 -19.27429634 145.40104343 -22.28930664 140.24609375 C-27.57873231 137.81456816 -30.03938941 139.25347647 -34 143 Z "  transform="translate(482,54)"/>
<path d="M0 0 C4.85851856 3.32965638 8.92960863 7.60174937 13.0480957 11.78540039 C14.66785748 13.42664507 16.30795407 15.04536338 17.95117188 16.66308594 C18.99998309 17.71453993 20.04755306 18.76723383 21.09375 19.82128906 C21.57814041 20.29758255 22.06253082 20.77387604 22.56159973 21.26460266 C27.18328588 26.01451678 29.78277141 31.20671338 29.79296875 37.92675781 C29.19610763 54.73069409 14.7534229 65.379379 3.76855469 76.56860352 C2.52358857 77.83954352 1.27869211 79.11055177 0.03385925 80.38162231 C-11.31353711 91.95935174 -22.71096086 103.48787688 -34.12199783 115.00285053 C-41.76520277 122.71730669 -49.3926191 130.44611152 -56.98193359 138.21362305 C-63.63677372 145.02469229 -70.32039549 151.80597625 -77.03868079 158.55449361 C-80.57778227 162.1113609 -84.10240625 165.68000467 -87.59278107 169.2847538 C-105.7388761 188.00109491 -121.75637191 200.3182047 -146.64453125 208.61425781 C-145.90608097 208.61572437 -145.16763069 208.61719093 -144.40680313 208.61870193 C-126.44641051 208.65573852 -108.4862129 208.71471126 -90.52597427 208.79816055 C-81.84055518 208.83798581 -73.15522714 208.87036053 -64.46972656 208.88525391 C-56.90025705 208.89825242 -49.33098762 208.92517076 -41.76163077 208.96887088 C-37.75291616 208.99152648 -33.74444869 209.00716606 -29.73566437 209.00614166 C-25.96313663 209.00539745 -22.19115604 209.02325116 -18.41876984 209.05542564 C-17.03367609 209.06395069 -15.64852115 209.0656569 -14.26341248 209.0600605 C-12.3730322 209.05343945 -10.48261458 209.07366866 -8.59234619 209.09527588 C-7.53412785 209.09896305 -6.4759095 209.10265022 -5.38562393 209.10644913 C-1.94397024 209.74404217 -0.77955648 210.89157304 1.35546875 213.61425781 C2.51258683 217.23989448 2.69063965 218.87688184 1.10546875 222.36425781 C-0.64453125 224.61425781 -0.64453125 224.61425781 -3.64453125 226.61425781 C-6.19411818 226.81167961 -8.634751 226.89254518 -11.18478394 226.88168335 C-12.34714953 226.88848002 -12.34714953 226.88848002 -13.53299725 226.89541399 C-16.1377809 226.90810614 -18.74235676 226.90643454 -21.34716797 226.90478516 C-23.21139801 226.91076741 -25.07562557 226.91757225 -26.93984985 226.92514038 C-32.01010735 226.94283853 -37.08029739 226.94749737 -42.15058279 226.94877195 C-46.38029799 226.95066896 -50.6099974 226.95802421 -54.83970654 226.96511614 C-64.81746221 226.98141223 -74.79518177 226.98628399 -84.77294922 226.98486328 C-95.07208287 226.98366154 -105.37100706 227.00476705 -115.6700877 227.03635061 C-124.50668128 227.0624855 -133.34320635 227.07323175 -142.1798383 227.07195246 C-147.46008417 227.071442 -152.74014397 227.07717135 -158.02035141 227.09830856 C-162.98621776 227.117644 -167.95171967 227.11784763 -172.91759872 227.1032753 C-174.74092133 227.10118025 -176.56426647 227.10592936 -178.38755035 227.11799622 C-180.87556823 227.13339677 -183.36232131 227.12417579 -185.85031128 227.10873413 C-186.57298089 227.11902126 -187.2956505 227.12930838 -188.04021919 227.13990724 C-191.57161704 227.0914255 -193.54783425 226.67464926 -196.56938362 224.78756142 C-199.4776921 221.74168785 -199.6407037 219.79421852 -199.64453125 215.61425781 C-198.79039111 212.85236861 -197.90122849 210.48797963 -196.69921875 207.89160156 C-196.21689285 206.79564667 -196.21689285 206.79564667 -195.724823 205.67755127 C-194.67206971 203.29496302 -193.5960507 200.92368979 -192.51953125 198.55175781 C-191.78508873 196.90122525 -191.05235771 195.24993011 -190.32128906 193.59790039 C-188.83118938 190.23480773 -187.33305244 186.87547449 -185.82910156 183.51855469 C-183.79032879 178.95681462 -181.79674111 174.37685597 -179.82421875 169.78613281 C-179.52993988 169.10172623 -179.23566101 168.41731964 -178.9324646 167.71217346 C-177.81761543 165.11768689 -176.70392837 162.52270217 -175.590271 159.92770386 C-174.83463847 158.16987795 -174.07558408 156.41352421 -173.31640625 154.65722656 C-172.89456055 153.67778076 -172.47271484 152.69833496 -172.03808594 151.68920898 C-171.34827637 150.16710815 -171.34827637 150.16710815 -170.64453125 148.61425781 C-170.37572765 148.00833335 -170.10692405 147.40240889 -169.82997489 146.77812308 C-167.53823616 141.87431396 -164.90202127 138.29836779 -161.05426025 134.52278137 C-160.50112396 133.96411068 -159.94798767 133.40543999 -159.37808967 132.82983989 C-157.5390803 130.97731674 -155.68624424 129.13930733 -153.83300781 127.30102539 C-152.50467655 125.96890758 -151.1772044 124.63593263 -149.8505249 123.3021698 C-146.25624105 119.69395744 -142.64954972 116.09839215 -139.04005146 112.50540757 C-135.25785031 108.73708917 -131.48584529 104.95858808 -127.71234131 101.18156433 C-121.37413558 94.84065888 -115.02790121 88.50787686 -108.67675781 82.17993164 C-101.34314119 74.87291738 -94.02202735 67.55355886 -86.70757699 60.22736245 C-79.66021374 53.16920428 -72.60437254 46.11958117 -65.54454803 39.07388878 C-62.54522688 36.08031309 -59.54882798 33.08385714 -56.55475616 30.08503151 C-53.02562762 26.55111601 -49.48909681 23.02477541 -45.94681549 19.50404549 C-44.65108142 18.21385624 -43.35785662 16.92114107 -42.06739807 15.6256752 C-30.85529902 4.37554895 -16.84251062 -8.98745713 0 0 Z M-24.39501953 22.32226562 C-32.03265203 30.04402379 -32.03265203 30.04402379 -38.64453125 38.61425781 C-29.73453125 47.52425781 -20.82453125 56.43425781 -11.64453125 65.61425781 C-6.4752197 63.02960204 -3.13006684 59.42937372 0.91796875 55.36425781 C1.68560547 54.61273438 2.45324219 53.86121094 3.24414062 53.08691406 C8.84751597 47.56272736 8.84751597 47.56272736 12.35546875 40.61425781 C12.03857977 35.9111379 10.06367801 33.80853403 6.8046875 30.53222656 C5.87849609 29.60087891 4.95230469 28.66953125 3.99804688 27.70996094 C3.51279541 27.23308838 3.02754395 26.75621582 2.52758789 26.26489258 C1.04402468 24.80279847 -0.41693212 23.3205231 -1.87695312 21.83496094 C-2.80701172 20.91005859 -3.73707031 19.98515625 -4.6953125 19.03222656 C-5.54778564 18.18426514 -6.40025879 17.33630371 -7.27856445 16.46264648 C-13.51495725 11.59052494 -19.80700613 17.84559314 -24.39501953 22.32226562 Z M-55.84732056 53.67810059 C-56.43266571 54.26546997 -57.01801086 54.85283936 -57.62109375 55.45800781 C-58.22456635 56.06052368 -58.82803894 56.66303955 -59.44979858 57.28381348 C-60.73387742 58.56720953 -62.01668517 59.85187838 -63.29833984 61.13769531 C-65.23688141 63.08151901 -67.18059932 65.02004718 -69.125 66.95800781 C-70.37401807 68.20768791 -71.62272524 69.45767883 -72.87109375 70.70800781 C-73.44429352 71.27918335 -74.01749329 71.85035889 -74.60806274 72.43884277 C-77.41628243 75.26295967 -80.11050138 78.12926394 -82.69116211 81.16308594 C-88.33626964 87.68075032 -94.56620016 93.65835134 -100.671875 99.73925781 C-102.02972473 101.0952394 -103.38735158 102.45144421 -104.74476624 103.80786133 C-108.29511724 107.35441841 -111.84846242 110.89796042 -115.40246582 114.44085693 C-119.03772203 118.06583141 -122.67010224 121.69368531 -126.30273438 125.32128906 C-133.41387427 132.42174682 -140.52818455 139.51901878 -147.64453125 146.61425781 C-146.71800424 147.78965777 -145.77789738 148.95436358 -144.83203125 150.11425781 C-144.30996094 150.76394531 -143.78789062 151.41363281 -143.25 152.08300781 C-141.65248292 153.95934909 -141.65248292 153.95934909 -138.64453125 153.61425781 C-137.05495731 152.45581271 -137.05495731 152.45581271 -135.52154541 150.81838989 C-134.90489014 150.19863281 -134.28823486 149.57887573 -133.65289307 148.94033813 C-132.98272156 148.25152557 -132.31255005 147.56271301 -131.62207031 146.85302734 C-130.91111206 146.13447571 -130.20015381 145.41592407 -129.46765137 144.67559814 C-127.92077541 143.11057634 -126.3773012 141.54218675 -124.83679962 139.97089005 C-122.39757614 137.48424563 -119.94837934 135.00784806 -117.49603271 132.53414917 C-110.52393955 125.49774505 -103.57006789 118.44346043 -96.62402344 111.38134766 C-92.37770967 107.06549942 -88.1192607 102.76193038 -83.85332489 98.4654808 C-82.22982195 96.82520447 -80.61114888 95.18013297 -78.99744415 93.53021622 C-76.73777985 91.22008777 -74.46309788 88.92578088 -72.18457031 86.63427734 C-71.52249573 85.94951324 -70.86042114 85.26474915 -70.17828369 84.55923462 C-66.17877205 80.57588729 -63.27977819 78.4885975 -57.64453125 77.61425781 C-54.26953125 78.55175781 -54.26953125 78.55175781 -51.64453125 80.61425781 C-50.51953125 83.92675781 -50.51953125 83.92675781 -50.64453125 87.61425781 C-53.58746071 92.83606137 -57.5607609 96.80315336 -61.79980469 100.99658203 C-62.51239944 101.70946884 -63.2249942 102.42235565 -63.95918274 103.15684509 C-66.30271183 105.49898702 -68.65323297 107.83397553 -71.00390625 110.16894531 C-72.63530382 111.79661058 -74.26625877 113.42471959 -75.89678955 115.05325317 C-80.17985601 119.32870033 -84.46889563 123.59810596 -88.75921631 127.86627197 C-93.13998322 132.22654383 -97.51506142 136.5925155 -101.890625 140.95800781 C-110.4697093 149.51567223 -119.05511607 158.06696353 -127.64453125 166.61425781 C-126.74280657 167.79251139 -125.82251623 168.95657358 -124.89453125 170.11425781 C-124.3840625 170.76394531 -123.87359375 171.41363281 -123.34765625 172.08300781 C-121.53048829 174.05998296 -121.53048829 174.05998296 -117.64453125 173.61425781 C-115.56003699 172.12290356 -115.56003699 172.12290356 -113.5569458 170.00769043 C-112.75210251 169.20834579 -111.94725922 168.40900116 -111.11802673 167.58543396 C-110.24408768 166.6971138 -109.37014862 165.80879364 -108.46972656 164.89355469 C-107.54255325 163.96696548 -106.61537994 163.04037628 -105.66011047 162.08570862 C-103.11626967 159.54301711 -100.58496362 156.98816692 -98.05569172 154.43099403 C-95.41095499 151.76127947 -92.75491268 149.10286219 -90.10003662 146.4432373 C-85.07367283 141.4044331 -80.0575936 136.3555178 -75.04510856 131.30291128 C-69.3383842 125.5515024 -63.62031942 119.81142574 -57.90126276 114.07228374 C-46.13633328 102.26552582 -34.38576321 90.44458299 -22.64453125 78.61425781 C-23.58759124 77.50536384 -24.53190359 76.39753487 -25.47673035 75.29014587 C-26.26532078 74.36458846 -26.26532078 74.36458846 -27.06984234 73.42033291 C-29.28227655 70.88280165 -31.62921871 68.49979315 -34.0078125 66.11816406 C-34.48526413 65.63975571 -34.96271576 65.16134735 -35.45463562 64.66844177 C-36.4490811 63.67332358 -37.44475903 62.67943552 -38.44165039 61.68676758 C-39.97466497 60.1591866 -41.50216892 58.62623701 -43.02929688 57.09277344 C-44.00098098 56.12174888 -44.97297456 55.1510339 -45.9453125 54.18066406 C-46.82356689 53.3035376 -47.70182129 52.42641113 -48.60668945 51.52270508 C-52.18040328 48.17590731 -52.74456214 50.59352432 -55.84732056 53.67810059 Z M-157.64453125 161.61425781 C-159.92780967 166.84499971 -162.20634881 172.07776984 -164.48046875 177.3125 C-165.2552011 179.09399444 -166.03123876 180.87492182 -166.80859375 182.65527344 C-167.92399058 185.2104427 -169.03471842 187.76759666 -170.14453125 190.32519531 C-170.49451172 191.12420258 -170.84449219 191.92320984 -171.20507812 192.74642944 C-172.99611674 196.5400777 -172.99611674 196.5400777 -173.64453125 200.61425781 C-165.18285526 198.01859419 -157.17267106 194.478303 -149.08203125 190.92675781 C-147.67788912 190.31377301 -146.27359338 189.70113996 -144.86914062 189.08886719 C-141.45915723 187.60138123 -138.05127621 186.10914833 -134.64453125 184.61425781 C-139.16669171 179.19478677 -143.95371552 174.15275789 -148.95703125 169.17675781 C-149.68470703 168.44521484 -150.41238281 167.71367187 -151.16210938 166.95996094 C-151.85369141 166.26966797 -152.54527344 165.579375 -153.2578125 164.86816406 C-153.88469971 164.24240479 -154.51158691 163.61664551 -155.1574707 162.97192383 C-156.43201479 161.50188342 -156.43201479 161.50188342 -157.64453125 161.61425781 Z "  transform="translate(257.64453125,131.3857421875)"/>
</svg>
