<?xml version="1.0" encoding="UTF-8"?>
<svg version="1.1" xmlns="http://www.w3.org/2000/svg" fill="#d6d6d6" width="512" height="512">
<path d="M0 0 C0.96988861 0.00182281 1.93977722 0.00364563 2.9390564 0.00552368 C17.29056055 0.05091691 31.25442918 0.5562653 45.375 3.3125 C46.72053955 3.55395752 46.72053955 3.55395752 48.09326172 3.80029297 C91.69438156 11.68987506 132.84026903 31.3774291 166.375 60.3125 C167.13167969 60.95832031 167.88835937 61.60414062 168.66796875 62.26953125 C180.8161432 72.91190183 192.64131337 84.40083733 202.375 97.3125 C202.78878906 97.84987793 203.20257813 98.38725586 203.62890625 98.94091797 C211.31576589 108.9388779 218.06113145 119.40061847 224.375 130.3125 C224.76929199 130.98974121 225.16358398 131.66698242 225.56982422 132.36474609 C240.47785371 158.28373809 250.03651819 187.77601638 254.375 217.3125 C254.375232666 218.51712891 254.72965332 219.72175781 254.91235352 220.96289062 C256.511325 232.62017354 256.7334053 244.18436098 256.6875 255.9375 C256.68476578 257.39233292 256.68476578 257.39233292 256.68197632 258.8765564 C256.63658309 273.22806055 256.1312347 287.19192918 253.375 301.3125 C253.21402832 302.20952637 253.05305664 303.10655273 252.88720703 304.03076172 C244.99762494 347.63188156 225.3100709 388.77776903 196.375 422.3125 C195.72917969 423.06917969 195.08335937 423.82585937 194.41796875 424.60546875 C183.77559817 436.7536432 172.28666267 448.57881337 159.375 458.3125 C158.83762207 458.72628906 158.30024414 459.14007813 157.74658203 459.56640625 C147.7486221 467.25326589 137.28688153 473.99863145 126.375 480.3125 C125.69775879 480.70679199 125.02051758 481.10108398 124.32275391 481.50732422 C98.40376191 496.41535371 68.91148362 505.97401819 39.375 510.3125 C38.17037109 510.48982666 36.96574219 510.66715332 35.72460938 510.84985352 C24.06732646 512.448825 12.50313902 512.6709053 0.75 512.625 C-0.70483292 512.62226578 -0.70483292 512.62226578 -2.1890564 512.61947632 C-16.54056055 512.57408309 -30.50442918 512.0687347 -44.625 509.3125 C-45.52202637 509.15152832 -46.41905273 508.99055664 -47.34326172 508.82470703 C-107.15338904 498.00212011 -164.66745829 463.94435543 -201.625 415.3125 C-202.04168945 414.77222168 -202.45837891 414.23194336 -202.88769531 413.67529297 C-210.5709873 403.6802884 -217.31342968 393.22040964 -223.625 382.3125 C-224.01929199 381.63525879 -224.41358398 380.95801758 -224.81982422 380.26025391 C-239.72785371 354.34126191 -249.28651819 324.84898362 -253.625 295.3125 C-253.80232666 294.10787109 -253.97965332 292.90324219 -254.16235352 291.66210938 C-255.761325 280.00482646 -255.9834053 268.44063902 -255.9375 256.6875 C-255.93567719 255.71761139 -255.93385437 254.74772278 -255.93197632 253.7484436 C-255.88658309 239.39693945 -255.3812347 225.43307082 -252.625 211.3125 C-252.38354248 209.96696045 -252.38354248 209.96696045 -252.13720703 208.59423828 C-244.24762494 164.99311844 -224.5600709 123.84723097 -195.625 90.3125 C-194.65626953 89.17748047 -194.65626953 89.17748047 -193.66796875 88.01953125 C-183.02559817 75.8713568 -171.53666267 64.04618663 -158.625 54.3125 C-158.08762207 53.89871094 -157.55024414 53.48492187 -156.99658203 53.05859375 C-146.9986221 45.37173411 -136.53688153 38.62636855 -125.625 32.3125 C-124.94775879 31.91820801 -124.27051758 31.52391602 -123.57275391 31.11767578 C-97.65376191 16.20964629 -68.16148362 6.65098181 -38.625 2.3125 C-37.42037109 2.13517334 -36.21574219 1.95784668 -34.97460938 1.77514648 C-23.31732646 0.176175 -11.75313902 -0.0459053 0 0 Z M-143.453125 98.328125 C-145.36361763 100.07368302 -147.31504214 101.73107451 -149.3125 103.375 C-153.17506548 106.67165472 -156.36540158 110.431396 -159.625 114.3125 C-160.35332031 115.14136719 -161.08164063 115.97023438 -161.83203125 116.82421875 C-198.67310022 159.497961 -216.89888572 215.09440824 -213.16064453 271.27539062 C-209.19625421 323.01198559 -187.65083797 370.28666203 -151 406.9375 C-149.60861292 408.32888708 -148.22892349 409.7325006 -146.87890625 411.1640625 C-141.23871571 417.07779577 -134.93750278 422.02185492 -128.43652344 426.94091797 C-127.27925384 427.81713638 -126.12583867 428.69848456 -124.97753906 429.58642578 C-82.85466709 462.07494828 -26.44328804 475.10908306 25.94921875 469.0546875 C70.52718743 463.26660428 111.18790208 444.72266867 144.203125 414.296875 C146.11361763 412.55131698 148.06504214 410.89392549 150.0625 409.25 C153.92459904 405.95374338 157.11829407 402.19549554 160.375 398.3125 C161.11492187 397.46042969 161.85484375 396.60835938 162.6171875 395.73046875 C199.6018615 352.54229512 217.90329201 296.89683769 214.0625 240.1796875 C210.20305525 192.53038889 190.79280126 147.64129857 158.39453125 112.51953125 C156.63595093 110.59767848 154.96680225 108.63602511 153.3125 106.625 C150.01624338 102.76290096 146.25799554 99.56920593 142.375 96.3125 C141.52292969 95.57257813 140.67085938 94.83265625 139.79296875 94.0703125 C68.03448885 32.6191382 -38.01850304 25.01728627 -143.453125 98.328125 Z " transform="translate(255.625,-0.3125)"/>
<path d="M0 0 C0.33 63.36 0.66 126.72 1 192 C2.98 191.67 4.96 191.34 7 191 C12.61 191 18.22 191 24 191 C24 204.53 24 218.06 24 232 C7.54151798 232.74031149 -8.8439436 233.13982934 -25.31640625 233.09765625 C-27.52269966 233.09578337 -29.7289935 233.0943636 -31.93528748 233.09336853 C-37.64780902 233.0896117 -43.36030375 233.07984285 -49.07281494 233.06866455 C-54.93981565 233.05830046 -60.80682083 233.05383931 -66.67382812 233.04882812 C-78.11589889 233.03821193 -89.55794299 233.02067363 -101 233 C-101 219.47 -101 205.94 -101 192 C-91.43 192 -81.86 192 -72 192 C-72.33 188.04 -72.66 184.08 -73 180 C-73.07522319 177.79887347 -73.12230137 175.59627044 -73.12025452 173.39385986 C-73.12162918 172.23303894 -73.12300385 171.07221802 -73.12442017 169.8762207 C-73.12082489 168.64766357 -73.11722961 167.41910645 -73.11352539 166.15332031 C-73.11324252 164.81166587 -73.11340319 163.47001128 -73.1139679 162.12835693 C-73.11425198 158.52586272 -73.1084187 154.92340256 -73.10139394 151.32091618 C-73.09509511 147.54131816 -73.09455148 143.76171916 -73.09336853 139.9821167 C-73.09027432 132.84264989 -73.08208695 125.7031986 -73.07201904 118.56373858 C-73.06079825 110.42818798 -73.05533249 102.2926366 -73.05032361 94.15708017 C-73.03990251 77.43804296 -73.02158108 60.7190271 -73 44 C-81.91 44 -90.82 44 -100 44 C-100 29.81 -100 15.62 -100 1 C-93.1525 0.835 -86.305 0.67 -79.25 0.5 C-76.20120605 0.42168945 -76.20120605 0.42168945 -73.09082031 0.34179688 C-48.71703756 -0.2022415 -24.40159558 0 0 0 Z " transform="translate(295,176)"/>
<path d="M0 0 C7.71577729 6.48617135 12.32942306 15.11404283 13.8984375 25.1484375 C14.53696102 36.20287589 11.37892531 46.25085815 4.2109375 54.71484375 C-2.44961122 61.13949803 -11.81299111 65.13587798 -21.0390625 65.6484375 C-21.77253906 65.69871094 -22.50601563 65.74898438 -23.26171875 65.80078125 C-35.20925711 66.27413855 -45.22684071 62.93352308 -54.0078125 54.83203125 C-61.62391846 46.84480149 -64.15461687 37.53943726 -64.0390625 26.6484375 C-63.2506971 17.15989676 -59.73187243 8.79562261 -52.7265625 2.2734375 C-38.00018563 -9.79975742 -15.69851483 -11.61803444 0 0 Z " transform="translate(283.0390625,83.3515625)"/>
</svg>
