<?xml version="1.0" encoding="UTF-8"?>
<svg version="1.1" xmlns="http://www.w3.org/2000/svg" fill="#d6d6d6" width="512" height="512">
<path d="M0 0 C1.27302979 -0.0071553 2.54605957 -0.01431061 3.85766602 -0.02168274 C5.27655005 -0.02452315 6.69543435 -0.02723486 8.11431885 -0.02983093 C9.60239827 -0.03609457 11.09047612 -0.04274128 12.57855225 -0.04974365 C16.62828885 -0.06716367 20.67801364 -0.07770834 24.72777843 -0.08594918 C27.25756981 -0.09109769 29.78735752 -0.09717351 32.3171463 -0.10346031 C40.2311478 -0.12251601 48.14513996 -0.1367458 56.05915999 -0.14507228 C65.19647116 -0.15484425 74.33354004 -0.18116101 83.47076583 -0.22157317 C90.53156546 -0.25173055 97.59229564 -0.26654083 104.65315843 -0.26985329 C108.87099081 -0.27220441 113.08856448 -0.28117236 117.30632782 -0.30631447 C121.27577111 -0.32959349 125.24478532 -0.33382931 129.21427917 -0.32355309 C130.66952695 -0.32305755 132.12479582 -0.32938327 133.57997894 -0.34310913 C135.57016768 -0.36082774 137.56054272 -0.35133671 139.55078125 -0.34057617 C140.66355312 -0.34296453 141.776325 -0.34535288 142.92281723 -0.34781361 C146.79600811 0.26932621 148.96617901 1.74292033 152.02935791 4.14717102 C155.93088034 9.52858127 156.17550585 14.27392708 156.1428833 20.76142883 C156.14302933 21.52279144 156.14317535 22.28415405 156.14332581 23.06858826 C156.14263046 25.57918673 156.13485578 28.08971054 156.12701416 30.60029602 C156.12514864 32.34335795 156.12372537 34.0864204 156.12272644 35.82948303 C156.11891185 40.41289218 156.10909058 44.99626954 156.09802246 49.57966614 C156.08778561 54.25841339 156.08322395 58.93716579 156.07818604 63.61592102 C156.06746737 72.7930183 156.05040363 81.97009202 156.02935791 91.14717102 C156.69381235 91.14348385 157.35826679 91.13979668 158.04285622 91.13599777 C174.21792479 91.04762212 190.39291679 90.98144953 206.56817055 90.93992233 C214.39044496 90.91930578 222.21255811 90.89120269 230.034729 90.84541321 C236.8533347 90.80551747 243.6718236 90.77973161 250.49054277 90.77081704 C254.10034481 90.76560685 257.70981274 90.75338046 261.3195076 90.72425079 C265.35135914 90.69197894 269.38263151 90.69121335 273.41461182 90.69306946 C274.60863617 90.67868835 275.80266052 90.66430725 277.03286743 90.64949036 C283.33427547 90.68093003 287.27037154 90.84739769 292.02935791 95.14717102 C295.76366369 99.39655346 296.15551328 102.92066568 296.1697998 108.46585083 C296.17425649 109.43114756 296.17425649 109.43114756 296.17880321 110.41594523 C296.187487 112.57612281 296.18899818 114.73624494 296.19049072 116.8964386 C296.19511913 118.44377765 296.20014382 119.99111557 296.20553589 121.53845215 C296.21865983 125.74515434 296.22510485 129.95184057 296.22954655 134.15856004 C296.23247732 136.78668511 296.23658214 139.41480582 296.24105072 142.0429287 C296.25472571 150.26554463 296.26439233 158.48815059 296.26825261 166.7107771 C296.27273335 176.20290481 296.29028194 185.69488852 296.31925321 195.18697244 C296.34086906 202.52379934 296.35095684 209.86058573 296.35229373 217.19744414 C296.35334184 221.57952927 296.35925086 225.96147904 296.37711334 230.34353065 C296.39359235 234.46641809 296.39575042 238.58906838 296.38697433 242.71197701 C296.38620386 244.22365707 296.39054805 245.73534988 296.40043259 247.24699783 C296.41315467 249.31412697 296.40727481 251.38041652 296.39685059 253.44754028 C296.39831715 254.6032594 296.39978371 255.75897852 296.40129471 256.94971943 C295.82506971 261.90338777 294.15417798 265.1320895 290.46685791 268.45967102 C286.3827228 271.28714917 284.04451384 271.27456867 279.05331802 271.2813921 C278.32343048 271.28374433 277.59354294 271.28609656 276.84153759 271.28852007 C274.37062141 271.29523144 271.89975756 271.2947512 269.42883301 271.29434204 C267.64946848 271.29763934 265.87010469 271.30136462 264.09074187 271.30548352 C259.18136324 271.3155269 254.27199684 271.31922406 249.36260939 271.32187283 C244.07549485 271.32576896 238.78839007 271.33534774 233.50128174 271.34408569 C220.72333448 271.36386945 207.94538641 271.37391862 195.16742766 271.38281348 C189.15515378 271.38719315 183.14288078 271.39256078 177.1306076 271.39780235 C157.15325732 271.41481635 137.1759076 271.42931163 117.19855118 271.43655109 C112.01161956 271.4384611 106.82468795 271.44038141 101.63775635 271.44233704 C100.34851563 271.44282078 99.05927492 271.44330452 97.7309663 271.44380292 C76.83530595 271.45210731 55.93970278 271.47745038 35.04406741 271.50991771 C13.60763873 271.54295471 -7.82876087 271.5609968 -29.26521516 271.56419533 C-41.30776402 271.56636352 -53.3502295 271.57515723 -65.3927536 271.60065651 C-75.64653352 271.62231763 -85.90020982 271.63043658 -96.15401003 271.62068973 C-101.38813696 271.61613173 -106.62204991 271.61811811 -111.85614777 271.63745117 C-116.64539912 271.65498877 -121.43427888 271.65416201 -126.22353366 271.63855388 C-127.95843231 271.63616345 -129.69335607 271.64057514 -131.42821619 271.65238253 C-133.78301145 271.66741964 -136.13647605 271.65788702 -138.49123764 271.64215565 C-140.45466413 271.64362086 -140.45466413 271.64362086 -142.4577558 271.64511567 C-147.40191712 270.94429063 -150.516537 268.80184233 -153.78314209 265.08467102 C-156.25049052 261.05899726 -156.11657949 257.24759051 -156.11108398 252.6895752 C-156.11405511 251.92353747 -156.11702623 251.15749975 -156.12008739 250.36824876 C-156.12878027 247.79348726 -156.13028313 245.21877222 -156.1317749 242.64399719 C-156.13640265 240.80109559 -156.14142725 238.95819494 -156.14682007 237.11529541 C-156.15995006 232.10283372 -156.16639017 227.09038543 -156.17083073 222.07790923 C-156.17376043 218.94725536 -156.17786504 215.81660516 -156.1823349 212.68595314 C-156.19601129 202.89356541 -156.2056773 193.10118606 -156.20953679 183.30878943 C-156.21401831 171.99985547 -156.23157001 160.69104233 -156.26053739 149.38214511 C-156.28214382 140.64405639 -156.29224051 131.9060017 -156.29357791 123.16788656 C-156.29462666 117.94744018 -156.30054948 112.72710736 -156.31839752 107.50668907 C-156.33486026 102.59586836 -156.33704243 97.68524679 -156.32825851 92.77440834 C-156.32748718 90.972469 -156.33184351 89.17051903 -156.34171677 87.36860657 C-156.35441107 84.90740601 -156.34857342 82.4469134 -156.33813477 79.98571777 C-156.34619117 79.2737429 -156.35424757 78.56176803 -156.36254811 77.82821816 C-156.31675981 73.20776629 -155.39266199 70.07436061 -152.97064209 66.14717102 C-148.76591971 62.35266546 -146.39465787 61.02152168 -140.79483032 61.0269165 C-139.69824097 61.02554184 -138.60165161 61.02416718 -137.47183228 61.02275085 C-136.26342682 61.02634613 -135.05502136 61.02994141 -133.80999756 61.03364563 C-132.54174133 61.0334996 -131.27348511 61.03335358 -129.96679688 61.03320312 C-126.48354124 61.03291554 -123.00031986 61.03880602 -119.5170722 61.04577708 C-115.87888607 61.05201705 -112.2406992 61.05261493 -108.60250854 61.05380249 C-101.71062032 61.0569139 -94.81874791 61.06512474 -87.92686665 61.07515198 C-80.08174802 61.086319 -72.23662865 61.09182505 -64.39150405 61.09684741 C-48.25120746 61.1073075 -32.11092679 61.12490328 -15.97064209 61.14717102 C-15.98063484 60.27179688 -15.98063484 60.27179688 -15.99082947 59.3787384 C-16.057444 53.27881913 -16.1025507 47.179004 -16.13543701 41.07881165 C-16.15047925 38.80533141 -16.17091812 36.53187998 -16.19696045 34.25849915 C-16.2335443 30.98173391 -16.25041457 27.70535396 -16.26361084 24.42842102 C-16.28683662 22.91544434 -16.28683662 22.91544434 -16.31053162 21.37190247 C-16.31197626 15.24891884 -15.61564163 10.70068679 -12.97064209 5.14717102 C-8.58113756 0.97178866 -5.95396808 0.02289661 0 0 Z M15.02935791 30.14717102 C15.02935791 99.77717102 15.02935791 169.40717102 15.02935791 241.14717102 C51.32935791 241.14717102 87.62935791 241.14717102 125.02935791 241.14717102 C125.02935791 171.51717102 125.02935791 101.88717102 125.02935791 30.14717102 C88.72935791 30.14717102 52.42935791 30.14717102 15.02935791 30.14717102 Z M-124.97064209 91.14717102 C-124.97064209 140.64717102 -124.97064209 190.14717102 -124.97064209 241.14717102 C-89.00064209 241.14717102 -53.03064209 241.14717102 -15.97064209 241.14717102 C-15.97064209 191.64717102 -15.97064209 142.14717102 -15.97064209 91.14717102 C-51.94064209 91.14717102 -87.91064209 91.14717102 -124.97064209 91.14717102 Z M156.02935791 121.14717102 C156.02935791 160.74717102 156.02935791 200.34717102 156.02935791 241.14717102 C191.99935791 241.14717102 227.96935791 241.14717102 265.02935791 241.14717102 C265.02935791 201.54717102 265.02935791 161.94717102 265.02935791 121.14717102 C229.05935791 121.14717102 193.08935791 121.14717102 156.02935791 121.14717102 Z "  transform="translate(185.97064208984375,240.8528289794922)"/>
<path d="M0 0 C1.37285156 -0.04253906 1.37285156 -0.04253906 2.7734375 -0.0859375 C9.94213895 1.0728389 14.99794284 7.48420926 19.8671875 12.421875 C21.01974533 13.57867767 21.01974533 13.57867767 22.19558716 14.7588501 C24.63514894 17.20955682 27.06764239 19.66714497 29.5 22.125 C31.15839157 23.79342869 32.81724086 25.46140255 34.4765625 27.12890625 C38.53135683 31.2056855 42.58037902 35.28812879 46.625 39.375 C52.83140846 35.50095158 58.93907998 31.51168156 64.98046875 27.38671875 C66.27526018 26.50696944 67.57018358 25.62741434 68.86523438 24.74804688 C70.85037361 23.39990604 72.83282816 22.04848289 74.80834961 20.6862793 C76.75433733 19.3463052 78.71003925 18.0216616 80.66796875 16.69921875 C81.24838425 16.29402512 81.82879974 15.88883148 82.42680359 15.47135925 C87.21778933 12.26610095 92.33385437 10.05537432 98.19921875 10.625 C103.64587224 12.55800826 106.40057373 14.53836059 109.625 19.375 C112.2137948 27.1413844 110.12106801 35.80956527 108.83666992 43.68432617 C108.64641739 44.8854454 108.45616486 46.08656464 108.26014709 47.32408142 C107.74055161 50.59335417 107.21465943 53.86148035 106.68521285 57.1291635 C106.24274462 59.86494119 105.80458037 62.60140138 105.3663519 65.33786088 C104.33232933 71.79392079 103.29093533 78.24876165 102.24487305 84.70288086 C101.16781486 91.34905825 100.10322987 97.9971491 99.04473037 104.64630526 C98.13297582 110.37084031 97.21352587 116.09410315 96.28792459 121.81641561 C95.73626429 125.22739883 95.18748296 128.6387803 94.64610863 132.05141258 C94.04245098 135.85407431 93.42274188 139.65402462 92.80151367 143.45385742 C92.62528473 144.57763794 92.44905579 145.70141846 92.26748657 146.85925293 C91.17074884 153.4661056 90.23226987 159.02209792 85.0625 163.6875 C81.16884412 166.38310792 79.05321936 166.50496821 74.31268311 166.52217102 C73.33029203 166.52768605 73.33029203 166.52768605 72.32805467 166.5333125 C70.12331767 166.54436627 67.91862777 166.54819603 65.71386719 166.55200195 C64.13711903 166.55826536 62.56037236 166.56491205 60.98362732 166.57191467 C56.69216258 166.58933653 52.40070899 166.59987981 48.10921764 166.6081202 C45.42866764 166.6132682 42.7481211 166.61934405 40.06757355 166.62563133 C31.68264034 166.64468734 23.29771597 166.6589172 14.91276526 166.6672433 C5.23041537 166.67701606 -4.45170593 166.70333481 -14.13397527 166.74374419 C-21.61515347 166.77389673 -29.09626612 166.78871138 -36.57750392 166.79202431 C-41.04684122 166.79437593 -45.51593443 166.8033506 -49.9852066 166.82848549 C-54.19102626 166.85175603 -58.39644094 166.85600367 -62.60230827 166.84572411 C-64.14463332 166.84522837 -65.68697823 166.85155997 -67.22924232 166.86528015 C-69.33822885 166.88298968 -71.44576053 166.87589956 -73.55474854 166.86274719 C-74.7338895 166.86513555 -75.91303047 166.8675239 -77.12790298 166.86998463 C-81.7737833 166.1617707 -84.77801855 163.90019701 -88.1293335 160.69952393 C-90.08388113 157.05216509 -90.60979785 153.23477584 -91.30566406 149.18261719 C-91.47278019 148.25763805 -91.63989632 147.33265892 -91.81207657 146.37965012 C-92.34795222 143.3804889 -92.86446041 140.37857265 -93.375 137.375 C-93.54158615 136.39870132 -93.7081723 135.42240265 -93.87980652 134.41651917 C-95.11944888 127.10150019 -96.30625326 119.77826519 -97.484375 112.453125 C-97.85974363 110.12814402 -98.23517208 107.80317269 -98.61065674 105.47821045 C-99.38929822 100.6515171 -100.16538363 95.82442057 -100.93994141 90.99707031 C-101.93053874 84.82629732 -102.93050616 78.65708111 -103.93267441 72.48817825 C-104.70783625 67.70705141 -105.47663017 62.92491649 -106.24365997 58.14247894 C-106.60975855 55.8664334 -106.97814772 53.59075501 -107.34893036 51.31546783 C-107.86529454 48.14266086 -108.37268334 44.96853903 -108.87792969 41.79394531 C-109.10694725 40.40520203 -109.10694725 40.40520203 -109.34059143 38.98840332 C-111.85010741 23.01050409 -111.85010741 23.01050409 -107.375 16.375 C-103.60789513 12.50026356 -99.69652148 10.79142689 -94.375 10.375 C-86.84928807 11.70338904 -80.91624085 16.03949634 -74.8125 20.375 C-73.86101074 21.03765869 -72.90952148 21.70031738 -71.92919922 22.38305664 C-69.99885071 23.72788662 -68.07140369 25.07689154 -66.14697266 26.43017578 C-62.11952636 29.25584402 -58.05945842 32.03313502 -54 34.8125 C-51.79079279 36.33206886 -49.58288982 37.85351719 -47.375 39.375 C-42.33940144 35.1641873 -37.64854868 30.75942668 -33.05078125 26.078125 C-31.67916812 24.69387994 -30.3074194 23.30976923 -28.93554688 21.92578125 C-26.8007224 19.76605008 -24.66754692 17.6047366 -22.53686523 15.44091797 C-20.46254637 13.33644015 -18.38208662 11.2381902 -16.30078125 9.140625 C-15.66529861 8.49168274 -15.02981598 7.84274048 -14.37507629 7.1741333 C-13.77732895 6.5730072 -13.1795816 5.9718811 -12.5637207 5.35253906 C-11.78264702 4.56027924 -11.78264702 4.56027924 -10.98579407 3.75201416 C-7.51786602 0.78739806 -4.5093895 0.06315672 0 0 Z M-1.79707336 38.6902771 C-2.40455917 39.30601593 -3.01204498 39.92175476 -3.63793945 40.55615234 C-4.32567947 41.25042328 -5.01341949 41.94469421 -5.72200012 42.66000366 C-6.46987289 43.41931183 -7.21774567 44.17862 -7.98828125 44.9609375 C-9.56170815 46.5470147 -11.13528045 48.13294767 -12.70898438 49.71875 C-15.19948704 52.2340619 -17.68839582 54.75090787 -20.17456055 57.27050781 C-22.5664081 59.69254765 -24.96442014 62.10834675 -27.36328125 64.5234375 C-28.10508133 65.2786972 -28.84688141 66.03395691 -29.61116028 66.81210327 C-30.30835678 67.51267853 -31.00555328 68.21325378 -31.72387695 68.93505859 C-32.33374954 69.55238861 -32.94362213 70.16971863 -33.57197571 70.80575562 C-37.68642801 74.38672854 -41.67902076 75.15130085 -47.03125 75.09375 C-53.63872734 73.67345113 -58.98735562 69.43449086 -64.47460938 65.64257812 C-67.35436087 63.72175724 -70.3483543 62.05298492 -73.375 60.375 C-72.73316918 69.04525639 -71.49927809 77.57969413 -70.125 86.16015625 C-69.90440123 87.5520839 -69.68402778 88.94404728 -69.46386719 90.33604431 C-69.00559642 93.22823249 -68.54476907 96.11999788 -68.08203125 99.01147461 C-67.48879616 102.71960419 -66.90189854 106.42870481 -66.3168335 110.13813114 C-65.86459598 113.00118072 -65.40917341 115.86371645 -64.95275879 118.72610283 C-64.73490347 120.09471826 -64.51801925 121.46348863 -64.30212402 122.83241463 C-64.0015205 124.73522496 -63.6961897 126.6372867 -63.390625 128.53930664 C-63.21821289 129.6208754 -63.04580078 130.70244415 -62.86816406 131.81678772 C-62.49864382 134.35256304 -62.49864382 134.35256304 -61.375 136.375 C-20.785 136.375 19.805 136.375 61.625 136.375 C62.86659721 131.40861117 63.97182454 126.76914291 64.77001953 121.76293945 C65.07010422 119.89609245 65.07010422 119.89609245 65.37625122 117.99153137 C65.58696261 116.6571448 65.79747838 115.32272734 66.0078125 113.98828125 C66.22895808 112.59918613 66.45030558 111.21012314 66.67184448 109.8210907 C67.13300793 106.92430426 67.59158917 104.02712405 68.04833984 101.12963867 C68.63280055 97.42349663 69.22398014 93.71846278 69.81711006 90.01369953 C70.27456882 87.15135746 70.72835669 84.28844262 71.18105698 81.42534447 C71.39758962 80.05886717 71.61528035 78.69257284 71.8341713 77.32647133 C72.13944758 75.41786821 72.43922346 73.50838779 72.73876953 71.59887695 C72.91038605 70.51492142 73.08200256 69.43096588 73.25881958 68.31416321 C73.59353429 65.62756086 73.6959242 63.07807183 73.625 60.375 C69.36686275 62.61671776 65.21847003 64.91461114 61.296875 67.7109375 C55.08234269 72.09309033 50.02727831 75.41540862 42.125 75.08203125 C35.35046629 73.16610843 30.63369278 67.63736408 25.85546875 62.765625 C25.13386063 62.03881531 24.4122525 61.31200562 23.66877747 60.56317139 C21.37851584 58.25517864 19.0950994 55.94056894 16.8125 53.625 C14.51115128 51.29606867 12.2083642 48.96860563 9.90266418 46.64398193 C8.47094892 45.19996669 7.04191453 43.75328773 5.61576843 42.30377197 C4.9745253 41.65599792 4.33328217 41.00822388 3.67260742 40.34082031 C3.10668381 39.76664368 2.54076019 39.19246704 1.95768738 38.60089111 C0.10665326 36.89819151 0.05867057 36.97389765 -1.79707336 38.6902771 Z "  transform="translate(255.375,44.625)"/>
<path d="M0 0 C1.21494141 -0.01998047 2.42988281 -0.03996094 3.68164062 -0.06054688 C14.96313714 -0.05436523 14.96313714 -0.05436523 19.5625 4.4375 C22.56970599 8.51926417 22.94482826 11.49376551 22.96655273 16.51928711 C22.97341599 17.21263657 22.98027924 17.90598602 22.98735046 18.62034607 C23.00558446 20.90205628 23.00178604 23.18307663 22.99609375 25.46484375 C23.00065731 27.05758385 23.00596341 28.65032197 23.01197815 30.24305725 C23.02090262 33.57772837 23.01849393 36.91215992 23.00854492 40.24682617 C22.99705775 44.5118197 23.01726552 48.77598497 23.04646206 53.04086971 C23.06484382 56.32924111 23.06452769 59.61741476 23.05882454 62.90582466 C23.05867156 64.47784143 23.06469697 66.0498718 23.07711601 67.62183952 C23.09206205 69.82385476 23.08132476 72.02434939 23.06420898 74.22631836 C23.06404282 75.47698593 23.06387665 76.7276535 23.06370544 78.01622009 C22.32992043 83.02511207 20.15300878 86.20217873 16.18359375 89.28515625 C11.43420897 91.37318681 6.64001849 91.05670957 1.5625 90.4375 C-3.01529278 88.26907184 -5.3982463 86.04049107 -7.4375 81.4375 C-7.85295499 77.55398852 -7.78590557 73.69462131 -7.73046875 69.79296875 C-7.72622391 68.6680452 -7.72197906 67.54312164 -7.71760559 66.3841095 C-7.7008369 62.79749438 -7.66318688 59.21144479 -7.625 55.625 C-7.60995087 53.19076333 -7.59626287 50.75651784 -7.58398438 48.32226562 C-7.55093925 42.36048471 -7.50075728 36.39903277 -7.4375 30.4375 C-8.82388672 30.48970703 -8.82388672 30.48970703 -10.23828125 30.54296875 C-14.43395418 30.40464986 -16.22477538 29.07907358 -19.4375 26.4375 C-23.35624498 21.03297494 -23.22485758 15.89383217 -22.4375 9.4375 C-17.68821562 -0.58876702 -9.86229941 -0.05736927 0 0 Z "  transform="translate(248.4375,300.5625)"/>
<path d="M0 0 C4.004793 2.0023965 6.6587028 4.17998877 9 8 C10.676194 13.02858199 10.60642735 17.34030411 8.8125 22.25 C6.46100791 25.8177811 3.81557843 28.09221079 0 30 C-5.31135952 30.52940021 -9.67272741 30.66363629 -14.5 28.25 C-18.9861825 24.21243575 -20.84749026 21.32577356 -21.25 15.1875 C-21.18294487 11.12693906 -20.2660292 8.43811326 -18 5 C-12.18140719 -0.25092522 -7.70061453 -0.79398992 0 0 Z "  transform="translate(366,15)"/>
<path d="M0 0 C4.004793 2.0023965 6.6587028 4.17998877 9 8 C10.676194 13.02858199 10.60642735 17.34030411 8.8125 22.25 C6.46100791 25.8177811 3.81557843 28.09221079 0 30 C-5.31135952 30.52940021 -9.67272741 30.66363629 -14.5 28.25 C-18.9861825 24.21243575 -20.84749026 21.32577356 -21.25 15.1875 C-21.18294487 11.12693906 -20.2660292 8.43811326 -18 5 C-12.18140719 -0.25092522 -7.70061453 -0.79398992 0 0 Z "  transform="translate(156,15)"/>
<path d="M0 0 C4.004793 2.0023965 6.6587028 4.17998877 9 8 C10.676194 13.02858199 10.60642735 17.34030411 8.8125 22.25 C6.46100791 25.8177811 3.81557843 28.09221079 0 30 C-5.31135952 30.52940021 -9.67272741 30.66363629 -14.5 28.25 C-18.9861825 24.21243575 -20.84749026 21.32577356 -21.25 15.1875 C-21.18294487 11.12693906 -20.2660292 8.43811326 -18 5 C-12.18140719 -0.25092522 -7.70061453 -0.79398992 0 0 Z "  transform="translate(261,0)"/>
</svg>
